<svg id="Layer_1" data-name="Layer 1" xmlns="http://www.w3.org/2000/svg" viewBox="0 0 960 960"><defs><style>.cls-1{fill:#00225b;}</style></defs><g id="g35"><path id="path9" class="cls-1" d="M466.84,39.06c-6.57,1.43-13.74,2.85-16,3.27-4.1.76-6.23,1.35-13.91,3.7a31.72,31.72,0,0,1-6,1.34,11.85,11.85,0,0,0-4.09,1.26A11.3,11.3,0,0,1,423,49.89c-1.54,0-8.37,2.09-12.72,3.86a14.32,14.32,0,0,1-4.09,1.17,12.71,12.71,0,0,0-4,1.18c-1.54.58-4.44,1.76-6.58,2.6-13,4.95-12.11,4.36-11.17,7.55,1.79,5.79,3.49,11.92,4,14.69a12.39,12.39,0,0,0,1.19,3.78,15.76,15.76,0,0,1,1.2,4.19,42.09,42.09,0,0,0,1.36,5.46c.34,1.17,1.28,4.19,2.05,6.71s2,7,2.82,10c1.62,5.62,2.9,6.88,5.46,5.29a5.78,5.78,0,0,1,2.64-1c1.28,0,10.67-3.69,11.52-4.53a3.81,3.81,0,0,1,2-.51,14.2,14.2,0,0,0,4.35-1.17c4.44-1.85,19.29-6.38,20.91-6.38a12,12,0,0,0,4-1.26,11.3,11.3,0,0,1,3.84-1.26,25,25,0,0,0,5.29-1.17c18.09-5.54,26.8-5.54,46.43.08,2.39.59,6.23,1.68,8.53,2.35,10.07,2.77,22.36,6.55,25,7.64a14.49,14.49,0,0,0,4.27,1.17,5.07,5.07,0,0,1,2.39.67c.77.68,7.42,3.28,13.4,5.29,3.58,1.26,4.86.42,4.86-3.19a3,3,0,0,1,.77-2.26c.43-.34,1-2.1,1.36-4.12a49.4,49.4,0,0,1,1.71-6.88c.6-1.84,1.79-5.79,2.56-8.81s2.05-7.13,2.65-9.23,1.87-6.63,2.81-10.07a54,54,0,0,0,1.8-7.39c0-1-3.76-2.94-10.67-5.45-1.88-.67-5-1.77-6.83-2.52-6.83-2.52-19.71-6.46-21.08-6.46a11,11,0,0,1-3.75-1.26,12.43,12.43,0,0,0-4.44-1.26,10.64,10.64,0,0,1-3.67-.84,23.45,23.45,0,0,0-5.2-1.68c-2-.42-6.32-1.43-9.65-2.1-9.9-2.26-30.21-6.29-31-6.21C479,36.54,473.41,37.72,466.84,39.06Z"/><path id="path11" class="cls-1" d="M356.76,74c-1.37.76-3.16,1.68-3.84,2.1s-1.88.92-2.56,1.18c-2.22.84-18.1,8.72-23.47,11.66-2.82,1.51-6.49,3.53-8.11,4.37-5.29,2.85-9.73,5.37-12.12,6.79-11,6.72-24.66,15.36-28,17.8-2.22,1.59-4.95,3.52-6,4.19-6.57,4.37-29.78,22.08-35.33,26.94L234,152.11l3.32,3.78c3.59,4,10.16,11.24,24.92,27.61,4.95,5.45,9.48,9.9,10.07,9.9s2.56-1.34,4.35-2.94c8.11-7.3,46.51-34.66,53.25-38a47.82,47.82,0,0,0,6-3.52,57.81,57.81,0,0,1,5.63-3.27c.94-.42,4.27-2.27,7.25-4s10.76-5.79,17.24-9,11.69-6.21,11.69-6.88a74.5,74.5,0,0,0-2.22-8.48c-1.28-4.11-2.38-8.31-2.64-9.48s-1.54-5.88-2.9-10.5-3.16-10.49-3.84-13c-3-10.58-3.33-11.33-5-11.5A8.66,8.66,0,0,0,356.76,74Z"/><path id="path13" class="cls-1" d="M596.55,73.3a25.12,25.12,0,0,0-1.28,4.45c-.42,2-1.36,5.71-2,8.22s-1.7,6.3-2.21,8.4a27.78,27.78,0,0,1-1.71,5.12,20.77,20.77,0,0,0-1.37,4.61,91.47,91.47,0,0,1-3,10.83c-3.93,11.92-4.36,11.08,9.3,17.71,6.4,3.19,14.42,7.38,17.75,9.31a55.61,55.61,0,0,0,6.57,3.61,42.53,42.53,0,0,1,5.46,3.19,80.26,80.26,0,0,0,7.34,4.45c6.74,3.36,47.19,32.48,52.23,37.51,1.45,1.43,3.15,2.69,3.92,2.69,1.2,0,5.72-4.7,17.84-18.55,2.56-2.94,7.17-8,10.07-11.24s6.57-7.22,7.93-8.9l2.39-3-3.5-2.85c-2-1.6-5-4-6.57-5.38-2.56-2.18-14.76-11.66-17.58-13.68-5.12-3.6-9.47-6.79-14.25-10.23a52.51,52.51,0,0,0-6.14-4.2,50,50,0,0,1-5.8-3.61c-7.09-4.62-6.92-4.45-20.31-12.34-14.51-8.56-12.29-7.38-35-18.88C602.19,73.22,597.66,71.54,596.55,73.3Z"/><path id="path15" class="cls-1" d="M478.62,119.71c-2,2.52-3.76,10.83-3.76,17.71-.08,4-.51,7.55-.94,7.81s-2.73-1.35-4.95-3.7c-8.36-8.81-19.54-13.42-30.21-12.42-8.19.76-11.43,1.43-12.45,2.6-.69.84,0,1.43,3.07,2.44a27.37,27.37,0,0,0,5.37,1.34c1.88.08,14.85,6.55,20.57,10.24a61.69,61.69,0,0,1,7.6,6c2.47,2.52,2.73,3,1.53,3.53a3,3,0,0,1-2.56-.34c-1.28-1.09-6.66-3-14.59-5.37-4.87-1.43-7.68-1.59-17.07-1.34-10.67.25-11.43.42-17,3.1a37,37,0,0,0-8.71,6.05c-3.41,3.77-3.92,5.53-1,3.94,1.37-.76,8.36-1,26.2-1H454l3.84,2.27c2.13,1.26,3.5,2.27,3,2.27-6.15.08-15.7,2-20.23,4-7.42,3.28-16.81,13.6-12.37,13.6a3.55,3.55,0,0,0,2-.76c1.79-1.67,16.56-5.87,22.79-6.46,5.71-.5,6.57-.42,6.57.76,0,.75-1.11,1.93-2.48,2.68-3.67,1.85-7.51,7.89-8.19,12.93-.34,2.35-.34,4.28-.09,4.28s1.88-1.26,3.42-2.77c5.29-5,8.19-7.39,11.86-9.07,2-.92,4.27-2.09,5-2.51,2-1,2.05-1,3.59.58,1.19,1.18,1.36,5.79,1.36,38.36.09,28,.35,37.43,1.11,38.35,1,1.26,8.79,6.72,9.56,6.72.26,0,.43-18.64.43-41.46,0-46.41-.17-44.9,5.63-42.22a13.25,13.25,0,0,0,3.84,1.43c1.28,0,6.49,3.86,11.18,8.22,2.13,2,4.35,3.44,4.78,3.19,1.36-.84.25-6.46-2.05-9.9a28.06,28.06,0,0,0-5-5.46c-1.63-1.25-3-2.85-3-3.52,0-2.77,18.52.84,28.84,5.54,3.5,1.59,4.1,1.09,2.39-2-1.88-3.6-7.25-8-12.8-10.65-4-1.85-13.65-3.78-19.71-3.86-.43,0,.85-1,3-2.27l3.84-2.27h24.32c18,0,24.83.25,26.28,1,2.73,1.51,2.3.17-1.19-3.86-6.4-7.39-20.4-11.16-34.65-9.4-7.34.84-11.52,1.93-15.45,3.86a11.22,11.22,0,0,1-3.92,1.18,6.92,6.92,0,0,0-3.16,1.25c-1.71,1.1-2.9.93-2.9-.42,0-1.17,4.61-5.11,10.58-9a96.86,96.86,0,0,1,23.81-10.74c3.92-1.09,4.78-1.59,4-2.52a8.2,8.2,0,0,0-4.1-1.59c-17.06-2.85-27.47.17-38.23,11-2.81,2.86-5.46,5-5.71,4.7s-.6-4.11-.69-8.56C485.1,126,481.43,116.19,478.62,119.71Z"/><path id="path17" class="cls-1" d="M575.39,149.42c-.26.34,0,1.85.68,3.44,2.9,6.8,1,15.53-4.61,21-2.21,2.26-10.92,7-12.8,7a3.56,3.56,0,0,0-1.79,1.26,3.8,3.8,0,0,1-2.22,1.26c-3.84,0-23,15.78-31.57,25.93-2.56,3-5.12,6.13-5.72,6.8a87.57,87.57,0,0,0-9.13,13.68c-2,3.61-4.1,6.46-4.86,6.46s-3-1.59-5-3.61-4.27-3.52-4.78-3.52c-.68,0-.94,3.61-.85,11.75.08,10.24.25,11.83,1.62,12.84,1.79,1.26,1.88,6.63.17,11.75a42.37,42.37,0,0,0-1.54,8.14c-.34,3.52-.85,5.12-1.79,5.29-.68.08-3.41-1.77-6-4.12-8.19-7.47-27.57-18.71-35.42-20.56a10.58,10.58,0,0,1-3.41-1.26,19.32,19.32,0,0,0-4.69-1.26c-2.14-.25-6-1.09-8.54-1.67-6.31-1.6-28.24-1.6-35.75.08-3.08.67-7.94,1.59-10.76,2-7.16,1.1-14.59,2.94-29.86,7.31-22.7,6.63-36,8.3-45.49,5.79-5.63-1.51-12.88-5.46-16-8.82-1.62-1.76-1.19-3.86,2-9.65,1-1.93,1.36-4.86,1.36-12.59V224l-3.41-6.12c-4.27-7.89-5.46-8.56-9.9-5.54-9,6.12-15.19,18.29-15.19,29.79,0,7.55,4.86,19,10.92,25.6,3.16,3.44,12.12,10.41,13.4,10.41a29,29,0,0,1,4.18,1.59c7.17,3.27,10.92,3.86,23.81,3.78,11.44,0,12.55.08,12.55,1.51,0,.75-1.11,2.68-2.39,4.19-2.91,3.36-10,14.69-10.84,17.54a18.88,18.88,0,0,1-1.79,3.7,6.64,6.64,0,0,0-1.2,3.52,3,3,0,0,1-.77,2.27c-.42.33-1.19,2.35-1.7,4.53s-1.54,5.79-2.22,8.14-1.71,5.88-2.22,8-1.54,5-2.13,6.47a12,12,0,0,0-1.2,3.94,13.84,13.84,0,0,1-1.19,4c-.69,1.51-1.8,4.11-2.39,5.71-6.57,17.12-17.75,31.64-30.55,39.53-13.83,8.56-34,10.4-48.22,4.36-14.42-6-22.87-16.28-26.45-32-1.54-6.71-1.54-7.21,0-15.1,2.9-15.28,8.61-26.69,17.92-35.92a38.17,38.17,0,0,1,19-10.49c4-1,5.2-.93,10.66.42,12.89,3.27,21.42,12.25,23,24.08.86,6-.17,6.8-7.5,5.21-9.65-2-26.37-.09-31.15,3.52A9.85,9.85,0,0,1,229,342.2c-2.22.76-1.88,3.61.68,5.37,3.16,2.18,5.46,4.37,5.46,5.21,0,.42-1.79,1.93-4,3.35-8.11,5.12-11,8.4-8.79,9.74,1.37.84,10.16,2.94,12.37,2.94,2.56,0,4.7.83,4.7,1.76a25.77,25.77,0,0,1-2.14,5.12c-1.19,2.43-2,4.87-1.79,5.45.68,1.68,12.72,1.35,19.29-.5,15.53-4.45,23.81-12.34,32.09-30.72,1.19-2.68,1.53-5.62,1.45-14.68,0-11.08-.09-11.5-2.82-17.13-5.89-12.08-12.72-19.21-23.3-24.42-5.71-2.77-6.65-3.44-6.31-4.95,3.16-12.42,3.41-14.77,2.05-21.07-1.37-6-5.55-14.77-7.34-15.35-.6-.17-.94,1.34-.94,4.19a42.79,42.79,0,0,1-2,10.66c-3.84,11.58-10.75,18.72-24.41,25.35a77.9,77.9,0,0,0-32.6,30.21c-2.64,4.28-6.74,14.52-7.5,18.38-.43,2.1-1.11,5.29-1.63,7.13-1.36,5-1.19,21.49.26,25.77.68,2,1.45,4.87,1.79,6.46a29.18,29.18,0,0,0,2.73,6.72c3.33,6.12,2.73,7.13-4.86,7.72-11.1.92-20.48,7.47-26.29,18.29-4.09,7.56-3.32,8.23,4.53,4.2,3.58-1.76,7.17-3.27,8-3.27a3.7,3.7,0,0,0,2.22-.76c1.53-1.34,10.92-2.6,19.11-2.6a61.31,61.31,0,0,1,25.26,5c15.11,6,16.73,6.38,31.58,6.38,12.71,0,14.16-.17,20.82-2.35,8.62-2.85,12.2-4.62,20.14-9.65a73.39,73.39,0,0,0,25.94-29c1.28-2.68,2.48-3.94,3.33-3.77s2.73,2.93,4.44,6.12c9,17.38,23.64,29,45.65,36.34,6.4,2.1,7.77,2.27,22.19,2.27,17,0,19.12-.42,29.1-5.88,19.37-10.65,29.36-32.22,24.75-53.29-2-9-6.74-18-12.8-23.83-4.78-4.79-4.7-5.8.68-8.48,3.33-1.68,9.9-7.55,12.63-11.25,3-4.11,6.91-12.5,6.4-13.84-.77-1.85-4.69-1.68-10.15.33-5.89,2.27-8.28,3.36-11.18,5.29-3.84,2.52-4.87,1.43-4.87-5,0-6.71-1.7-14.35-3.84-17.62l-1.53-2.27-2.91,3.28a37.59,37.59,0,0,0-8.36,15.44c-.6,2.1-1.45,3.94-2.05,4.11s-2-.92-3.32-2.43c-6.92-8.23-16.56-14.94-18-12.68-1.28,2.1-.09,13,2.22,18.89,1.19,3.1,1.88,6,1.62,6.21s-3.84.17-7.94-.25c-7.93-.93-18.17.16-18.77,1.84-.77,2.18,12.2,13.77,15.36,13.77a8.28,8.28,0,0,1,3.16,1.76c2.05,1.59,2.05,1.76.59,2.68-.85.59-3.84,2.44-6.57,4.12-5,3.19-12.54,11.66-11.6,13.09s10.24,1.85,18,.92c4.19-.42,7.85-.5,8.28-.08s.17,2.18-.51,3.94c-3.24,9.23-4.1,18.72-1.79,20.56s11.77-5.45,17.49-13.76c2.73-3.94,6-12.42,6-15.61.09-5.54,3.25-5.29,8.62.67,4.19,4.62,6.32,9.15,7.6,15.95,1.62,9-2,19.47-9.22,26.52-5,5-8.62,6.8-16.47,8.47s-10.24,1.6-19.37-.08c-8.36-1.51-12.46-3.1-22.61-8.48-2.56-1.34-11.61-9.9-14.85-14.1-2.9-3.69-6.91-11.91-9.13-18.71-2-6-2.05-25.85-.17-31.14a21.26,21.26,0,0,0,1.36-5.2c0-4.45,9.9-22.58,16.22-29.88,11.52-13.09,23.72-20.64,42.24-25.93,7.42-2.1,29.27-2.18,37.55-.09,9.64,2.44,19.71,6.55,24.74,10,12.63,8.81,23,20.14,28.42,31.31,4.35,8.64,5.89,19.89,4.52,31.89-1.7,15.27-7,25.76-20.14,40.28-8.36,9.23-11.35,13.43-14.84,20.73-5.12,10.83-6.66,17.21-7.68,31.73l-.52,8h-320l.17-2.94c.17-4.28,3.5-18.71,6.06-26.43.43-1.43,1.54-5,2.3-8s2.82-9.23,4.44-13.85,3.5-9.9,4.1-11.75,2-5.45,3-8,2.14-5.54,2.48-6.71,1.71-4.28,3-6.8a43,43,0,0,0,2.21-5.29,80.49,80.49,0,0,1,3.84-8.22,68.49,68.49,0,0,0,3.84-8.31,25.39,25.39,0,0,1,2.56-4.95c2.91-4.87,3.25-7.39,1.11-8.06a94.94,94.94,0,0,1-9-3.61,21.38,21.38,0,0,0-5.12-1.76,3.14,3.14,0,0,1-2-.76,34.92,34.92,0,0,0-5.55-2.6c-2.56-1-5.8-2.35-7.25-2.94s-5.63-2.35-9.39-3.86a80.12,80.12,0,0,1-8.7-3.94,4.5,4.5,0,0,0-3.16-.76c-1.28.51-7.76,13.18-13.74,26.78-.6,1.51-1.88,4.44-2.81,6.54-1.8,3.95-4.19,10-8.62,21.82-1.54,3.95-3.33,8.4-4,9.91a17.33,17.33,0,0,0-1.2,3.77c0,1.26-5,17-6.48,20.57a13.92,13.92,0,0,0-1.2,4.61,20.37,20.37,0,0,1-1.19,5.2c-1.2,3.36-2.73,9.57-5.12,21-.69,3.19-1.88,8.72-2.65,12.17-1.19,5.7-1.28,23.66-1.11,181.28l.26,175H894.38l.26-175c.17-130.76,0-175.91-.77-178.77-.51-2.09-1.45-6.46-2-9.65s-1.79-8.56-2.56-11.75-1.79-7.47-2.22-9.48a19.31,19.31,0,0,0-1.62-5.12,9.22,9.22,0,0,1-.85-3.27,50.31,50.31,0,0,0-2.22-8.23c-1.2-3.61-2.56-8-2.9-9.57-.69-2.77-6.32-18.46-10.25-28.53-3.15-8.23-4.35-11.25-5.12-13.68a12.64,12.64,0,0,0-1.53-3.36,11.86,11.86,0,0,1-1.45-3.1c-.34-1.18-3.25-7.47-6.49-14s-5.89-12.25-5.89-12.76-.76-1.25-1.62-1.76c-1.28-.59-3.16-.17-8.36,2.1-9,4-9.39,4.2-14.76,6.29-2.56.93-5.64,2.19-6.83,2.69s-3.41,1.43-4.87,2-4.09,1.68-5.54,2.35c-4.7,2-8.71,3.7-10.24,4.2-2.31.67-1.88,2.69,2.64,11.83,2.31,4.62,4.7,9.74,5.46,11.33s2.22,5,3.42,7.56a305.9,305.9,0,0,1,11.35,28.53c1.19,3.44,2.47,7,2.81,8s1.28,3.77,2.05,6.29,2.39,7.8,3.67,11.75c3.42,11.08,7.17,27,7.43,31.47l.17,2.52-160.35.25c-159.5.17-160.44.17-162.23-1.51-2.13-2-6.57-10.57-8.45-16.28-3-9.23-1.36-23.33,4-33.82,3-5.63,6.14-14.61,8.27-22.66,1.37-5.46,1.71-9.49,1.71-20.57,0-14.51.34-12.5-6.14-37.17-2.39-9.32-2.56-33.07-.26-42.39,2.56-10.49,6.23-19.64,12.89-31.89,3.24-6,13.22-18.21,20.13-24.84,17.93-17.21,39.69-24.76,60.08-21,4.18.84,8.79,1.84,10.16,2.35a102.9,102.9,0,0,1,11.52,4.86,19.31,19.31,0,0,0,3,1.6c6.92,3.1,18.78,16.2,23.64,26.1,7.26,14.77,7.43,34.33.51,45.4-2.81,4.54-9.47,10.41-14.59,12.85-2.9,1.34-5.29,1.67-13,1.67-8.87.09-9.64-.08-14-2.43-5.64-3-12.89-9.9-12.89-12.17,0-1.51.6-1.68,6.66-1.68s9.55-.75,17.23-3.52c3.25-1.18,12-6.72,13.57-8.56,2.31-2.69-7.51-6.38-17.15-6.38-7.68,0-9.3-.84-7.59-3.53a42.91,42.91,0,0,0,6.48-15.1c1-4.79,1-6.21.17-6.72-1.45-.92-2.56-.84-4.44.51a14.85,14.85,0,0,1-3.92,1.59c-1.2.34-4.95,2.85-8.28,5.62-3.75,3-6.31,4.62-6.49,4s-.85-3.19-1.62-5.7-1.62-5.54-2-6.72a24.49,24.49,0,0,0-2.47-5,33.55,33.55,0,0,1-2.39-4.45c-.94-2.6-2.73-1.68-5.55,2.85a12.65,12.65,0,0,0-1.88,4.7,4.1,4.1,0,0,1-1,2.6c-.51.51-1.2,3.53-1.45,6.63-.6,6.88-1.71,7.39-6.49,3.19-4.44-3.86-12-7.72-15.79-8.14l-3-.25.08,3.86c.17,4,4.18,13.43,7.68,18,1.11,1.43,1.8,2.86,1.45,3.11s-3.32.59-6.82.59c-8.37,0-19,3.44-19,6.21.08,2.18,15.53,10.57,19.54,10.57a4,4,0,0,1,2.47,1c.77.75-.34,2.35-4.52,6.71-5.46,5.71-10.32,13.43-9.39,14.94,1.45,2.35,15.54,0,22-3.61,4.27-2.35,10.84-7.47,11.69-9,1.54-2.77,4.53-2.09,6.4,1.43,3.25,6,12.21,14.18,20.23,18.3,4.09,2.09,8.62,3.77,10,3.77,3.5,0,6.91,1.43,6.91,2.86,0,1.25-6.48,4.44-17.06,8.47a171.17,171.17,0,0,0-17.16,7.39,80.06,80.06,0,0,1-9,3.94,12.7,12.7,0,0,0-3.32,1.35c-3.59,1.93-17.75,1.93-21.34,0a11.82,11.82,0,0,0-3.41-1.35c-.51,0-2.9-1.76-5.38-3.86s-4.86-3.52-5.37-3.19c-1.54.84-.43,10.33,1.62,14.19a24.47,24.47,0,0,0,9,9.23c1.28.75,2.3,1.84,2.3,2.26s-1.53,3.11-3.41,5.71c-4.18,6.13-5.72,9.65-7.26,17.12s-1.62,11.16,0,18.55c4.19,19.64,19.8,33.74,39.26,35.33a43.07,43.07,0,0,0,41.22-22.32c.68-1.18,1.62-4.95,2.22-8.39,1.87-11.92-1.88-24.68-9.65-32.57-3.58-3.52-6.06-4.53-6.06-2.43,0,1.43-2.39,6.29-3.32,6.88-.43.17-2.56-.84-4.78-2.35-7.77-5.2-9-5.79-9.48-4.36-.25.67-.08,4.11.35,7.72s.68,6.8.42,7.22-2.47.5-5,.16-4.78-.16-5,.25c-.6,1,2.22,8.48,5.12,13.43a43.68,43.68,0,0,0,6.82,8.14c2.56,2.35,4.61,4.7,4.61,5.12,0,1.68-2.9,3.36-8.27,4.95-5,1.43-5.55,1.43-10.59,0-6.57-1.76-10.83-4.36-14.16-8.56-5.55-6.88-7.34-13.51-6-22.24,1.71-11.41,14.08-23.83,32.18-32.31,10.49-4.87,13.48-6.12,14.67-6.12a6.51,6.51,0,0,0,2.91-1.26,6.17,6.17,0,0,1,2.64-1.26c1,0,7-2.52,15.62-6.55,1.62-.75,4.61-2.43,6.65-3.69s4.44-2.35,5.47-2.35c1.45,0,1.62.33,1.1,2.27-.34,1.34-.85,9.81-1,19.05-.34,13.59-.17,17.37.94,20.73a25.54,25.54,0,0,1,1.36,5.28,13.93,13.93,0,0,0,1.2,4c6.74,15.44,9.05,22.07,9.05,26.1,0,7.89-5.89,18.21-12.63,22.08-5,2.93-3.93,4,3.66,3.44,8.2-.59,14.6-3.61,20.66-9.66l4.6-4.69,2.31,1.42a117.28,117.28,0,0,0,20,10.07c7,2.52,7.17,2.52,24.15,2.6s17.15,0,26.45-2.85c5.21-1.51,10-3.1,10.67-3.44,7.77-4,29.1-5.12,38.83-2.1,5.63,1.76,13.91,5.46,14.59,6.55a1.78,1.78,0,0,0,1.28.67c1.45,0,.77-3.44-1.88-9s-9.38-13.09-13.65-15.11c-5.21-2.51-10.16-4.45-11.44-4.45-2.3,0-2.39-2.18-.25-6,3.67-6.38,5-11.75,5-20.31,0-4.36-.34-8.22-.86-8.47a3,3,0,0,1-.85-2.19c0-3.44-6.06-13.26-11-17.7-6-5.46-15.87-10.41-22.19-11.08-6.91-.67-7.59-1.77-5.12-7.81,1.8-4.19,2-6.21,2-14.52,0-7.8-.34-10.32-1.71-13.43l-1.79-3.69-3.84,3.78c-3.5,3.44-8.19,11.58-9.64,16.45-.77,2.6-2.56,2.43-4.44-.34-4.44-6.54-16.22-15.86-17.92-14.18-.34.33-.69,3.44-.6,6.8a38,38,0,0,0,3.33,16c.68,1.51.94,2.93.68,3.19-.94.83-4.1.58-5.2-.51s-15.88-2-19.38-1.17c-1.28.33-2.13,1.09-2.13,2.1,0,3.1,11,13.34,16.47,15.44a2.57,2.57,0,0,1,1.45,2.26,2.46,2.46,0,0,1-1.45,2.19,14.44,14.44,0,0,0-2.82,1.25c-.68.42-2.13,1.1-3.24,1.6-2.3.92-10.15,8.06-11.35,10.24-.6,1.17-.25,1.68,1.71,2.77,3.07,1.51,16.3,1.76,20.48.33,3.92-1.34,4.86-.16,3.07,3.95s-4.69,15.19-4.69,18c0,4.36,1.19,4.87,6.14,2.26,4.52-2.26,11.69-8.39,14.08-12.08,2.22-3.27,2.39-3.11,6.74,7.3,2.56,6,7.43,12.59,9.39,12.59.6,0,2-1.76,3-4,1.62-3.36,1.88-5.45,2-14,0-10.5-.17-11.17-4.78-20.23-2.47-4.7-1.62-5.71,4.35-5.12,12.89,1.09,21.76,10.66,21.68,23.33,0,4.45-.51,6.55-2.73,11-7.51,14.93-22.62,25.09-40.71,27.52-22.61,3-46-9.31-57.17-30.21A76.62,76.62,0,0,1,658,358.31c-1.71-6.21-1.37-26.85.68-36.08,2.05-9.49,3.24-14.1,4.44-16.79a35.29,35.29,0,0,0,1.62-4.61,165.82,165.82,0,0,1,5.8-16.45,22.66,22.66,0,0,0,1.45-4.2c1.79-7.47,4.35-13.34,5.8-13.34.52,0,2.39,1.34,4.27,2.93,13.48,12.26,31.32,14.44,43.86,5.37,2.31-1.59,4.19-3.69,4.19-4.44,0-1.68-5.81-7.31-10.25-9.91-5-2.93-13.73-4.78-20.05-4.19-5.29.5-5.55.42-8.19-2.1-6.66-6.63-11.78-14.86-21.08-34.24a83.58,83.58,0,0,0-39.6-39.2,91.77,91.77,0,0,0-31.4-7.72l-7.25-.5-.26-2.52a57.87,57.87,0,0,0-1.54-7c-1.45-4.86-6.48-10.74-11.18-13.09C576.24,148.75,576.16,148.75,575.39,149.42ZM204.26,547.9c.08,9.74-.17,17.12-.6,17.54s-4.86.76-9.9.68c-5.89-.09-9.56.16-10.32.83-1,.84-1.2,9.07-1.2,52s.17,51.11,1.2,52c.76.67,4.35.92,10.15.83,4.95-.08,9.39.17,9.9.42,1.54.93,1.28,32.74-.26,34-1.36,1.1-77.57,1-78.68-.16-.85-.84-1.36-24.59-.68-30.22l.51-3.94h9.48c5.29,0,10.07-.34,10.66-.67,1.54-1,1.54-103.4-.08-104.41-.51-.33-5.29-.67-10.58-.67h-9.48l-.51-3.19c-.68-4.28-.17-29.79.68-31.05.52-.76,9.65-1,40-.84l39.42.25ZM320.4,532c.69.75.94,6.12.77,17.37l-.26,16.28-10.49.25c-10.33.26-10.5.26-11.27,2.35-.51,1.26-.85,21.57-.85,50.7s.34,49.43.85,50.69c.77,2.09.94,2.09,11.27,2.35l10.49.25.18,15.94c.17,9.15-.09,16.45-.6,17.21-1.2,1.93-79,1.93-80.22,0-.94-1.51-1.11-31-.17-32.48.34-.59,4.27-1,10.58-1.26,5.46-.08,10.16-.5,10.5-.84s.6-23.67.6-51.95c-.09-41.54-.26-51.53-1.2-52-.6-.42-5.38-.76-10.58-.76-7.94,0-9.64-.25-10.07-1.34-.26-.76-.51-8.06-.51-16.28,0-12.51.25-15.19,1.36-16.28s6-1.35,39.94-1.35C312.55,530.78,319.63,531,320.4,532Zm116.57.75a59.11,59.11,0,0,1,3.42,8.23c1.19,3.44,2.56,7,2.9,7.89s2,5,3.5,9.23,3.24,8.81,3.92,10.32a14,14,0,0,1,1.2,3.61,12.74,12.74,0,0,0,1.19,3.53,36.07,36.07,0,0,1,1.62,4.36c.26.92,1.88,5.45,3.59,10.07s3.5,9.74,4,11.33a24.72,24.72,0,0,0,1.36,3.78c.34.42,2.14,5.37,4.1,10.91,10.75,30.38,10.84,30.71,12.12,30.46s3.15-5,9.13-22.07c2.9-8.22,4.18-11.58,4.78-12.59A15.29,15.29,0,0,0,495,608a13.51,13.51,0,0,1,1.28-3.77,16.38,16.38,0,0,0,1.54-3.78c.51-1.59,2.22-6.54,3.84-10.91s3.75-10.41,4.78-13.43,2.22-6.21,2.64-7.13,1.62-4.11,2.65-7.13,2.3-6.63,2.9-8,2.47-6.38,4.1-11.16,3.58-9.32,4.43-10.24c1.54-1.59,2.73-1.68,40.2-1.68,37.63,0,38.74.09,39.59,1.68.6,1,.77,7.47.69,17.37l-.26,15.78-10.24.42c-5.63.25-10.75.76-11.26,1.09-.86.51-1.11,11.84-1.11,51.79s.25,51.27,1.11,51.78c.51.33,5.63.84,11.26,1.09l10.24.42.26,16.11c.17,13.77,0,16.2-1.2,17.37S597.32,707,569.67,707c-18.52,0-32.34-.34-33.71-.84l-2.13-.84.17-16.53.26-16.62,4.43-.25c2.39-.17,4.78-.76,5.3-1.35,1.28-1.51.93-87.7-.35-88-.42-.09-1.79,2.68-3,6.12a73,73,0,0,1-2.73,7.14,31,31,0,0,0-1.37,3.77c-.51,1.6-2.3,6.72-4,11.33s-3.84,10.66-4.78,13.43-2,5.79-2.47,6.71-1.62,4.12-2.65,7.14a86.23,86.23,0,0,1-3,8.14,14.27,14.27,0,0,0-1.19,3.27c0,.67-4.78,13.85-6.06,16.7-.43.93-1.71,4.54-2.9,8-2.48,7.3-6.57,18.71-7.94,22.07a12.3,12.3,0,0,0-1,3.1c0,2.1-3.16,6.8-4.69,7.22-3.42.84-32.77,0-33.71-1-.86-.83-3.93-9-8-20.89-.69-1.85-2.39-6.55-3.93-10.49s-3-8.31-3.5-9.66a40.68,40.68,0,0,0-1.53-4.19c-.52-.92-1.8-4.53-3-8-2.39-7.05-6.32-18.22-7.08-20.15-1.28-3-5.55-14.94-6.23-17.2-.86-2.85-3.16-9.23-4.19-11.75-.34-.92-1.28-3-2-4.62s-2.13-5.87-3.24-9.4c-4.1-12.84-4.27-11.24-4.27,37.1v44.48l2,.42c1,.17,3.42.5,5.3.59l3.41.25.26,16.62.17,16.53-2.14.84c-1.36.5-15.27.84-34.05.84-26,0-32.08-.25-32.85-1.18-.68-.75-.94-6.12-.77-17.37l.26-16.28,10.24-.42,10.24-.42V566.45L367,566l-10.24-.42-.26-16.36c-.09-9,0-16.79.17-17.38.34-.84,8.62-1.09,39.68-1.09h39.34Zm351.85-1.26c.77.59,1,4.62.85,17.46l-.26,16.7-7.93.25c-6.15.17-8,.51-8.45,1.51-.43,1.18,1.28,5.8,5.89,16.29.94,2.09,2,4.53,2.39,5.45s1.53,3.78,2.56,6.3,2.73,6.46,3.84,8.81,2.73,6.29,3.75,8.81,2.22,5.37,2.65,6.29c.68,1.43,2.56,5.8,5,11.75.43.93,2.56,6,4.78,11.33s4.52,10.75,5.12,12.17,2.31,5.12,3.76,8.4,3,6.46,3.41,7.13c.51,1,2.82,1.34,10.24,1.51l9.47.25-.17,17.38-.25,17.37H756.13l-.25-16.7c-.09-9.74.17-17.12.59-17.54s4.87-.76,9.82-.68c7,.17,9.13-.08,9.56-1,.51-1.35-7.85-20.82-9.31-21.74-.59-.33-16-.67-34.47-.67H698.62l-1.71,2.18a7.58,7.58,0,0,0-1.79,3.36,10.62,10.62,0,0,1-1.2,3.44,41.34,41.34,0,0,0-2,4.45c-.51,1.17-1.53,3.52-2.38,5.28s-1.11,3.45-.86,3.78,5,.76,10.16,1l9.55.42.26,16.28c.17,11.25-.08,16.62-.77,17.37-.77,1-7.85,1.18-39.59,1.18s-38.83-.17-39.6-1.18c-.68-.75-.94-6.12-.77-17.37l.26-16.28,9.73-.42,9.72-.42,1.54-2.69c.85-1.42,2.9-6,4.61-10.07s3.67-8.56,4.27-9.9c2.39-5.54,3.07-7.13,7.25-17.21,4.86-11.58,5-12,7.68-18s2.9-6.46,7.68-18c2.47-5.79,5-11.75,5.63-13.18s1.79-3.94,2.48-5.46,1.79-4.19,2.56-5.95,1.11-3.53.85-4S688,566,683.6,566h-8l-.52-2.77c-.34-1.51-.42-9.06-.25-16.78.17-11.42.51-14.27,1.53-14.86C677.88,530.61,787.2,530.53,788.82,531.45Z"/><path id="path19" class="cls-1" d="M730.19,571.65c-1.11,3-3.07,7.73-5.72,13.43a15.9,15.9,0,0,0-1.19,3c0,.42-2.13,5.21-6,13.6-2.21,4.78-4.09,10.41-3.66,10.83.93.84,36.78.58,37.37-.34.26-.42-.25-2.52-1.28-4.53a34.13,34.13,0,0,1-1.7-4.2c0-.17-1.2-2.93-2.65-6.12-3.41-7.39-4.1-9-8.53-19.73-2.05-5-4.18-9.06-4.61-9.06S730.79,570,730.19,571.65Z"/><path id="path21" class="cls-1" d="M351.64,167.3c-18.1,5.54-29.36,19.81-29.45,37.09s11.7,32.15,30,37.6c3.92,1.18,15,1.18,20.14,0,8-1.93,15.61-4.28,16-5a3.49,3.49,0,0,1,2.39-.76,18.39,18.39,0,0,0,5.29-1.68,21.54,21.54,0,0,1,4.52-1.67,7.16,7.16,0,0,0,2.56-.76c4.19-2.1,8.11-3.44,10.07-3.44a18.67,18.67,0,0,0,5.21-1.26c2.22-.92,6.31-1.26,15.19-1.26s13,.34,15.19,1.26a18.69,18.69,0,0,0,5.2,1.26c2,0,5.89,1.34,10.16,3.52a2.94,2.94,0,0,0,2.3.26c.52-.34.86-4.45.86-9.24,0-8.72,0-8.81-2.31-10a91.12,91.12,0,0,0-9.38-2.94c-9.9-2.52-34.22-2.52-43.78-.08-3.5.92-7.17,2-8.11,2.43s-3.58,1.43-6,2.18c-6.91,2.27-13.57,4.87-14.51,5.62a4.87,4.87,0,0,1-2.56.68,12.19,12.19,0,0,0-4.27,1.42c-2,1.09-4.86,1.43-12.37,1.43-9.56.08-9.9,0-13.65-2.43a32.11,32.11,0,0,1-6.4-6.3c-2.31-3.44-2.56-4.36-2.56-10.66,0-8.64.85-9.73,5.29-7.05,8.7,5,10.32,5.46,21.16,5.54h10.24l-.26-1.93A9.16,9.16,0,0,0,376,197c-.86-1.09-1.45-2.52-1.2-3.11.43-1.09,5.12-3,7.43-3a14.47,14.47,0,0,0,4.43-1.76c2.73-1.59,2.91-1.93,1.8-3.19a31.23,31.23,0,0,0-6.06-3.78c-2.65-1.25-5-2.93-5.29-3.6s.68-2.44,2.3-4,2.56-3.36,2.3-4C380.14,166.54,360.68,164.53,351.64,167.3Z"/><path id="path23" class="cls-1" d="M208.18,175.78a315.19,315.19,0,0,0-22.52,23.49c-3.08,3.45-6.83,7.73-8.45,9.49a42.53,42.53,0,0,0-4.27,5.12c-.77,1.09-3.07,4-5.12,6.46s-4.44,5.46-5.29,6.63-3.24,4.2-5.21,6.71-4.6,6-5.71,7.56-3.67,5.2-5.64,8c-4.43,6.21-18.94,29.12-20.22,31.89-1.37,3-.51,4,4.95,6.21,2.81,1,6.31,2.44,7.76,3.11s4.27,1.84,6,2.6,4.26,1.85,5.54,2.52a11.42,11.42,0,0,0,3.08,1.09,44.55,44.55,0,0,1,6.74,2.6c7.08,3.11,10,4.36,14.08,6l3.16,1.35,3.15-5.21c10.93-18,35.67-51.61,42.67-58.07.43-.51,3.33-3.7,6.32-7.14s9.9-10.74,15.36-16.2,10-10.07,10.07-10.23c.51-.51-1-2.61-6.32-8.48-2.81-3.19-8.45-9.48-12.54-13.93s-8.62-9.57-10.24-11.33-4.1-4.53-5.46-6.13l-2.65-2.85Z"/><path id="path25" class="cls-1" d="M735.48,174.68c-3.75,4.12-7.93,8.65-9.3,10.24s-3.67,4.28-5.21,5.88c-18.34,20.31-17.23,17.2-8.79,25.93,3.93,4,8.45,8.56,10.07,10.16s5,5.28,7.68,8.39,6.06,6.88,7.51,8.48c3.93,4.11,15.37,18.21,18.1,22.24,1.28,1.84,4.77,6.71,7.85,10.91s7.17,10,9,12.92,4.09,6.3,4.86,7.55a43.52,43.52,0,0,1,2.39,3.87c2,4.19,5,5.95,6.4,3.77a2.73,2.73,0,0,1,2.22-.84,13.79,13.79,0,0,0,4.86-1.68c4.7-2.43,12.55-5.87,13.57-5.87a36.94,36.94,0,0,0,6.06-2.52,46.5,46.5,0,0,1,5.72-2.52,14.48,14.48,0,0,0,3.24-1.17c1.54-.67,5-2,7.77-3.11s5.2-2.43,5.37-3c.43-1.09-1-4.53-3.84-8.81-.76-1.26-3.15-5-5.2-8.39-3.93-6.3-10.58-16.37-11.86-17.88-.34-.5-2-2.77-3.59-5-3.92-5.63-17.41-23.34-21.67-28.46-4.18-4.86-19.89-22.82-21.76-24.84-5-5.37-23.64-23.5-24.07-23.5S739.15,170.66,735.48,174.68Z"/><path id="path27" class="cls-1" d="M474.09,336c0,20.56.18,24.34,1.2,23.92,1.79-.67,4.44-8.9,5.63-17.21a51.41,51.41,0,0,0-2.9-25.84C474.44,308.21,474.09,309.72,474.09,336Z"/><path id="path29" class="cls-1" d="M148.45,834.43c-7.85,2.6-13.14,8-14.34,14.6-.6,3.27-1.28,3.69-6.91,4.2-2.13.25-2.56.58-2.56,2.35s.43,2.18,4,2.51c2.22.26,4.35.76,4.69,1.18s.77,10.74.86,23,.25,22.82.25,23.33c0,1.51,2.48,2.09,4.36,1.17,1.53-.84,1.62-2,1.62-22.66,0-12.08.34-22.66.85-23.83l.85-2.19h20.23c11.18,0,20.82.34,21.5.76s1.37,2.69,1.62,5.87c.35,4.28.18,5.21-1.1,5.63a3.55,3.55,0,0,1-2.91-.34c-8.19-5.87-20-3.94-25.09,4-1.87,2.94-2.73,10.58-1.53,14.77,2.81,10.24,16.38,15,25,8.73,4.1-2.94,5.38-2.1,5.63,3.94.26,5.54,1.46,6.89,4.53,5.29,1.53-.84,1.62-2,1.62-23.83,0-18.55.25-23.17,1.19-23.92.77-.67,5.12-.93,13.4-.76l12.29.25v6.72l-4.27.42c-4.86.59-7.59,2-8.87,4.78-1.62,3.44-1.11,6,1.88,8.9,2.39,2.35,2.73,3.1,2,4.61-.51,1-1.19,1.85-1.53,1.85-1,0-3.33,4.62-3.33,6.71,0,2.86,3.07,7.89,5.8,9.4,2,1.18,4.53,1.51,10.67,1.51,7.59,0,8.19-.08,11.69-2.6s3.76-2.6,4.86-1.09a4.33,4.33,0,0,1,.86,3,3.2,3.2,0,0,0,3.75,3.86l2.05-.25.43-23.08c.25-12.67.77-23.58,1.11-24.17s2.9-1,7-1c5.38,0,6.49.26,7.26,1.6.51,1,.85,10.32.85,24.25V906.6l2.39.42c4.35.84,4.44.51,4.44-24.17,0-18.63.25-23.08,1.19-23.83.77-.59,3.59-.93,7.51-.76l6.23.25.43,23.92c.26,13.18.6,24,.68,24.17a9.94,9.94,0,0,0,3.42,0l3.15-.25.43-23.92.43-23.92h42.67l.25,5.38c.34,7-.17,8.39-2.22,6.54s-8.28-3.94-11.69-3.94-9.73,2.51-11.69,4.7c-1.79,2.1-4.95,9.9-4.95,12.5,0,3.11,3.24,10.49,5.38,12.26a21.46,21.46,0,0,0,9.81,4.36c3,.59,9.9-1.26,12.2-3.27,2.48-2.19,3.25-1.35,3.5,4l.26,5.29,3.24.25a9.51,9.51,0,0,0,3.33,0c.08-.16.43-11,.68-24.17l.43-23.92,6.48-.25c4.7-.17,6.75.09,7.43.93s1.11,8.47,1.19,24.08l.26,23,2.73.59c1.79.33,3.07.16,3.67-.51s.94-10.4,1-24.42l.26-23.42,25.09-.25c17.75-.17,25.43.09,26.2.76,1.45,1.17,1.62,9.23.17,10.66-.68.67-5.21,1-14.59,1-12,0-14.09.17-17.16,1.77-5.46,2.6-7.34,5.95-7.34,12.92v5.79l3.93,3.61,4,3.61h6.74c6,0,7.08-.25,9.64-2.18a13.36,13.36,0,0,0,4.61-13.93c-1.53-5.46-.85-6.55,4.27-6.55,6.74,0,6.91.42,6.91,16.36,0,12.26.17,13.85,1.54,14.52a5.61,5.61,0,0,0,3.58.17l2.14-.5.42-23.84c.26-13.17.6-24,.69-24.17s5.71-.17,12.54-.17c14.34,0,14.51.09,13.31,7.64-.85,5.21-3.24,7.72-8.87,9.23-5,1.43-5.64,2.35-4.61,7.64,1.11,6.13,3.24,9.82,7.42,13,3.42,2.69,3.84,2.77,11.69,2.77,6.83,0,8.45-.25,10.24-1.68a8.39,8.39,0,0,1,4.19-1.68c1.53,0,2,.59,2.47,2.69a21.62,21.62,0,0,1,.34,4.45c-.42,3.77.09,4.61,2.48,4.61,4.35,0,4.43-.33,4.43-24,0-12.09.26-22.58.52-23.33.42-1.09,1.87-1.35,6.82-1.35,6.06,0,6.4.09,7.17,2.19.51,1.17.86,11.75.86,23.83,0,20.65.08,21.82,1.62,22.66,1.87.92,4.26.34,4.43-1.17.09-.51.18-10.75.26-22.83.09-17.21.34-22.16,1.28-23.25.94-1.26,3.16-1.43,14.59-1.43,10.67,0,13.66.26,14.51,1.18.68.92.94,4.53.68,12.08-.25,9.32-.51,11.17-1.87,12.68-3.5,3.77-9.9.59-9.9-5,0-1.84-.43-2.43-2.56-2.85-3.42-.76-4.27,0-4.27,3.52,0,3.28,2.56,8,5.38,9.91s12.63,1.68,15.44-.51c4.1-3.19,4.78-5.62,4.78-17.79,0-7.55.34-11.5,1-12.17s3.25-1,6-1c3.92,0,5,.34,5.8,1.6.51,1,.85,10.32.85,24.25V906.6l2.56.34a4.65,4.65,0,0,0,3.42-.5c.51-.51.85-9.4.85-24.17V858.93l2-.42a36.57,36.57,0,0,1,7.43-.25l5.55.25.42,23.92c.26,13.18.6,24,.68,24.17a10,10,0,0,0,3.42,0l3.16-.25.25-23.5c.17-17.45.43-23.58,1.28-24.08,1.37-.84,11.78-.84,13.14,0,.86.5,1.11,6.63,1.28,24.08l.26,23.42,2.47.59c4.7,1.25,4.7,1,5-24.76l.26-23.59,17.66-.25,17.67-.17,1.37,2c1.7,2.6,1,5.37-1.54,5.87-1,.26-4.95,1-8.62,1.68-7.08,1.34-9.81,3-12.12,7.39-2.39,4.53-.77,14,2.73,16,1.8,1,1.45,4.28-.68,6.88-1.45,1.85-1.88,3.44-1.88,7.55,0,5.63,1.54,8.56,6.15,11.5,3,1.93,10.58,2,13.82.17s5.21-1.09,4.61,2c-.6,2.86,1.19,4.62,4.1,4.2l2-.25.25-19.47c.18-18.8.18-19.47-1.53-20.4-1.45-.75-2.13-.5-3.84,1.18a8.43,8.43,0,0,0-2.13,2.77c0,1.42-5.13,3.61-8.45,3.61-2.82,0-4.18-.59-6.49-2.69-4.69-4.11-4.09-9.9,1.54-14.1,1-.75,4.78-1.34,10.24-1.59l8.7-.51.26-5.87c.17-3.19.68-6.3,1.19-6.88.69-.84,5.55-1.1,20.83-1.1,22.69,0,21.67-.33,21.67,7.56,0,4.78-1.19,5.87-4.44,3.94a16.06,16.06,0,0,0-13.39-1.84c-6.75,1.76-10.25,6.21-10.93,13.84-1.45,15.36,12.72,23.67,25.6,14.86,2.14-1.43,3.16.42,3.16,5.79,0,4.2.09,4.36,2.56,4.7a4.62,4.62,0,0,0,3.41-.5c.52-.51.86-6.13.86-13.94V879.33l2.81-3.19c2.65-2.94,3.25-3.27,7.34-3.27s4.7.16,7.43,3c2.56,2.85,2.9,3.69,2.9,7.89s-.26,5-2.9,7.55c-2.22,2.18-3.59,2.85-5.89,2.85s-3.16.42-3.59,1.68c-1.7,5.29,7.77,5.46,14.26.34,9.89-7.72,6.4-25.26-5.64-28.71-4-1.09-10,0-13.22,2.52-1.2.93-2.39,1.26-2.82.84s-.68-3.36-.51-6.54l.25-5.8,19.89-.25,19.8-.17.76,1.85c.35,1.09.77,11.75.77,23.75s.17,22.07.17,22.41,1.37.67,3,.67c2.3,0,3-.33,3-1.51V883.19c0-11.92.34-21.57.76-22.91l.94-2.19h15.19c10.67,0,15.53.34,16.22,1,1.62,1.6,1.19,7.55-.86,11.58-2.3,4.45-4.69,5.79-12,6.55l-5.29.59-.26,8.73c-.17,7.38,0,9.31,1.46,12.16,2.56,5,3.58,6.13,7.68,7.73,9.21,3.6,20.56-2.35,20.56-10.91,0-4.37-5.37-3.87-7.34.75-2.56,6-8.1,7.22-12.8,2.6-2.9-2.85-3-3-2.73-9.48l.26-6.55h33.28l.25,11.08c.18,10.66.35,11.25,2.22,12.42a4.26,4.26,0,0,0,3.42.76c1.19-.42,1.36-2.94,1.36-23.42,0-25.85-.08-25.6,6.06-25.6,3.24,0,3.41-.16,3.16-2.35l-.26-2.26-83.8-.25-83.71-.17-1.45-4.28c-1.88-5.54-4.53-9.4-7.68-11.33-12-7.22-33.71-5.46-40.54,3.36a33,33,0,0,0-3.07,6.71l-1.79,5.12H504.47l-3.84-5.46c-6-8.72-9.38-11.49-14.84-12.17-6.4-.83-7.77-.41-8.11,2.35-.17,1.26,0,2.27.43,2.35,5.71.34,8.27.93,10.24,2.27,3.92,2.77,7.08,6.71,7.08,9v2.1H459.67c-27.56,0-35.92-.25-36.61-1.09a16.88,16.88,0,0,1-1.79-4.37c-1.11-4.19-6.31-9.4-11.61-11.58s-11.09-3.1-20.39-3.1c-19.37,0-29.27,5-31.66,16a6.86,6.86,0,0,1-1.62,3.44c-.51.33-3.93.67-7.51.67-6.49,0-6.66-.08-7.94-2.52a11.76,11.76,0,0,1-1.28-3.86c0-2.69-5.89-8.56-10.92-10.91-4.18-2-6.15-2.43-14.42-2.69-15.36-.58-24.41,3.11-28.76,11.67a12.62,12.62,0,0,0-1.37,4.53,3.9,3.9,0,0,1-1.19,2.86c-.77.67-13.66.84-46.25.75-44.38-.25-45.15-.25-45.4-1.93-.86-4.28-6.23-13-8.11-13a4.5,4.5,0,0,1-2.22-1.09C175.93,833,157.24,831.57,148.45,834.43Zm26.2,6.38c5.63,2.77,8.7,6.29,8.27,9.56l-.25,2.27h-41l-.26-2.69c-.43-3.94,4.35-8.81,10.33-10.57C158.69,837.28,168.67,837.87,174.65,840.81ZM321,839.3c5.38,1.76,9.47,4.78,11.18,8.39,2.56,5.2,1.88,5.37-20.82,5.37-17,0-20-.17-20.4-1.26-1.53-3.86,3.93-10.24,10.58-12.42C306.83,837.62,315.71,837.62,321,839.3Zm81.67.33c6.57,2,9.73,4.28,11.43,8.23,2.22,5.2,2.14,5.28-24.83,5l-24-.25-.26-3c-.25-2.69.17-3.44,3.25-6a24.55,24.55,0,0,1,7.93-4.2C382.87,837.45,395.84,837.53,402.67,839.63Zm232-.25c7.76,2.94,13.48,9.4,10.92,12.42-.94,1.09-3.58,1.26-19.11,1.09l-18-.25-.26-2c-.34-2.44,2-7,4.44-8.48C619.25,838,628.3,836.86,634.7,839.38ZM237.63,859.94c1.1,3.11.42,26.61-.86,30.47a12.44,12.44,0,0,1-4.86,5.79c-3.16,2.18-4.35,2.51-9.47,2.51-5.47.09-6.15-.08-8.54-2.35-5.12-4.86-2.13-10.65,5.55-10.91,7.08-.16,7.34-5.53.34-5.53-3.84,0-8.53-3.36-8.53-6.13,0-3,3.32-5.62,7.16-5.62,6.15,0,7.34-.68,7.34-3.95,0-5,1.2-6.13,6.49-6.13C236.26,858.09,237,858.35,237.63,859.94Zm236,0c1.88,3,1.37,21.15-.85,25.43a14.45,14.45,0,0,1-13,8c-7.26,0-11.95-3.19-13.91-9.4-1.2-3.77-.34-5.28,3.5-6,6.31-1.17,10.24-6.63,10.24-14.18,0-2.44.25-4.79.59-5s3.16-.59,6.32-.59C471.62,858.09,472.47,858.35,473.58,859.94ZM805,859.1c.68.67,1,3.86,1,8.81v7.81h-8c-4.43,0-8.27-.34-8.53-.76s.09-2.09.77-3.77a21.83,21.83,0,0,0,1.28-7.05c0-2.18.42-4.45,1-5s3.33-1,6.23-1S804.43,858.51,805,859.1ZM180.71,874.46c3.24,2.43,4.6,7.72,3.24,12.51-1.2,4.28-2.56,5.79-7,7.55-2.73,1.17-3.58,1.17-7.25.08-4.95-1.42-6.57-2.94-8.37-7.89-1.11-3.19-1.11-3.86.09-6.63,1.45-3.61,3.5-6,5.89-7C170.21,871.86,178.23,872.7,180.71,874.46Zm148.23-.92c3.75,1.93,5.2,4.86,5.2,10.4,0,4.28-.34,5.21-2.3,7-4.87,4.45-9.65,5.37-14.59,2.86-4.44-2.27-6.15-5.21-6.15-10.49.09-5,1-6.8,5.12-9.57C318.78,872,325.61,871.86,328.94,873.54Zm360.46,0c4.1,1.59,6.06,5.12,6.06,10.49,0,4.11-.26,4.7-3.16,7.3-2.73,2.43-3.75,2.85-7.42,2.85s-4.78-.42-7.43-2.77c-2.81-2.6-3.07-3.19-3.07-7.63,0-4.28.34-5.12,2.82-7.64C681,872.36,684.71,871.52,689.4,873.54ZM397.12,877.4c7.77,4.7,4.52,15.86-4.69,15.94-9.05.09-12.29-12.25-4.27-16.19C391.83,875.38,393.79,875.38,397.12,877.4Zm250.46,19.05c1.28,4.2-.08,11.66-2.56,14.52-1.87,2.18-2.64,2.52-6.65,2.52-4.27,0-4.78-.26-7.17-3.11-1.45-1.76-2.65-4-2.65-5.12,0-4.61,5.12-9.4,10-9.4a8.46,8.46,0,0,0,4.18-1.26C645.11,892.84,646.73,893.43,647.58,896.45Z"/><path id="path31" class="cls-1" d="M828.5,866.57c-2.31.84-3.33,4.37-2,7.13,1.11,2.35,5.12,2.77,7.25.68C837.54,870.68,833.53,864.72,828.5,866.57Z"/><path id="path33" class="cls-1" d="M828.07,898.13c-1.62.42-2.73,3.35-2.22,5.87a4.88,4.88,0,0,0,2.65,2.6c2,1,2.64.93,4.52-.16,3-1.93,2.9-6.55-.08-7.89C830.63,897.54,830.46,897.46,828.07,898.13Z"/></g></svg>